<svg xmlns="http://www.w3.org/2000/svg" xmlns:xlink="http://www.w3.org/1999/xlink" viewBox="0 0 577.61 579.21"><defs><style>.cls-1{fill:url(#Degradado_sin_nombre_24);}.cls-2{fill:url(#Degradado_sin_nombre_24-2);}.cls-3{fill:url(#Degradado_sin_nombre_24-3);}.cls-4{fill:url(#Degradado_sin_nombre_24-4);}</style><linearGradient id="Degradado_sin_nombre_24" x1="-72" y1="248.55" x2="505.61" y2="248.55" gradientTransform="translate(-54.68 240.4) rotate(-44.7)" gradientUnits="userSpaceOnUse"><stop offset="0" stop-color="#5f1e61"/><stop offset="1" stop-color="#20b6c7"/></linearGradient><linearGradient id="Degradado_sin_nombre_24-2" x1="0" y1="276.6" x2="577.61" y2="276.6" gradientTransform="matrix(1, 0, 0, 1, 0, 0)" xlink:href="#Degradado_sin_nombre_24"/><linearGradient id="Degradado_sin_nombre_24-3" x1="55.59" y1="297.92" x2="519.08" y2="297.92" gradientTransform="matrix(1, 0, 0, 1, 0, 0)" xlink:href="#Degradado_sin_nombre_24"/><linearGradient id="Degradado_sin_nombre_24-4" x1="579.21" y1="64.07" x2="3.38" y2="523.28" gradientTransform="matrix(1, 0, 0, 1, 0, 0)" xlink:href="#Degradado_sin_nombre_24"/></defs><g id="Capa_2" data-name="Capa 2"><g id="Capa_1-2" data-name="Capa 1"><path class="cls-1" d="M476,76.15c28.25,13.44,52.22,30.62,68,52.55,57.15,79.66,13.31,214.44-36.52,285.77-46.18,66.11-114,115.58-188.56,146.29-28.21,11.62-58.43,20.81-88.8,17.92C133.48,569.47,34.42,431.64,14,344.5c-24.67-105.45-7.11-255,108-299.12,37.92-14.51,79.4-17,120-15.55C304.6,32.06,404.18,42,476,76.15ZM178,198.22q-33.65,33.3-27.46,76.76t52.22,90q47.47,48,90.15,54.59t77.05-27.36q34.36-34,27.82-77.12t-53.29-90.36q-45.33-45.79-89.09-52.8T178,198.22Z"/><path class="cls-2" d="M564.76,284.59c10.63,29.42,15.58,58.49,11.34,85.16-15.4,96.82-141.37,161.78-227,177.43-79.33,14.51-162.33,2-236.93-28.65C84,507,56,492.22,36.49,468.81-25.71,394.31.82,226.65,47.62,150.37,104.25,58.07,222-35.92,334.81,13.75,372,30.11,403.21,57.52,431,87.09,473.93,132.67,537.72,209.77,564.76,284.59ZM267.05,161.71q-47.36,0-73.52,35.25T167.35,297.65q0,67.49,25.68,102.22t74,34.75q48.33,0,74-35.25t25.68-101.72q0-64.42-26.18-100.19T267.05,161.71Z"/><path class="cls-3" d="M519.08,297.46q0,53.54-16.33,96.6t-46.71,73Q425.64,497,383,513.34t-95.23,16.32q-52.62,0-95.7-15.87T118.63,468q-30.4-29.94-46.72-73T55.59,297.46q0-52.59,16.78-95.69t47.16-73Q149.91,98.82,193,82.5t94.79-16.33q51.69,0,94.33,16.33t73,46.71q30.38,30.4,47.17,73T519.08,297.46ZM287.79,175q-42.65,0-66.22,31.74T198,297.46q0,60.78,23.13,92.06t66.67,31.3q43.53,0,66.66-31.74t23.13-91.62q0-58-23.58-90.25T287.79,175Z"/><ellipse class="cls-4" cx="287.92" cy="296.36" rx="148.48" ry="145.11"/></g></g></svg>