<svg xmlns="http://www.w3.org/2000/svg" xmlns:xlink="http://www.w3.org/1999/xlink" viewBox="0 0 1343.67 329.96"><defs><style>.cls-1,.cls-2{fill:#fff;}.cls-2{font-size:64px;font-family:Poppins-Regular, Poppins;}.cls-3{fill:url(#Degradado_sin_nombre_24);}.cls-4{fill:url(#Degradado_sin_nombre_24-2);}.cls-5{fill:url(#Degradado_sin_nombre_24-3);}.cls-6{fill:url(#Degradado_sin_nombre_24-4);}</style><linearGradient id="Degradado_sin_nombre_24" x1="-183.28" y1="-536.96" x2="83.28" y2="-536.96" gradientTransform="translate(539.8 468.6) rotate(-44.7)" gradientUnits="userSpaceOnUse"><stop offset="0" stop-color="#5f1e61"></stop><stop offset="1" stop-color="#20b6c7"></stop></linearGradient><linearGradient id="Degradado_sin_nombre_24-2" x1="0" y1="127.65" x2="266.56" y2="127.65" gradientTransform="matrix(1, 0, 0, 1, 0, 0)" xlink:href="#Degradado_sin_nombre_24"></linearGradient><linearGradient id="Degradado_sin_nombre_24-3" x1="25.65" y1="137.49" x2="239.55" y2="137.49" gradientTransform="matrix(1, 0, 0, 1, 0, 0)" xlink:href="#Degradado_sin_nombre_24"></linearGradient><linearGradient id="Degradado_sin_nombre_24-4" x1="267.3" y1="29.57" x2="1.56" y2="241.49" gradientTransform="matrix(1, 0, 0, 1, 0, 0)" xlink:href="#Degradado_sin_nombre_24"></linearGradient></defs><g id="Capa_2" data-name="Capa 2"><g id="Capa_1-2" data-name="Capa 1"><path class="cls-1" d="M396,185.3q14.37,0,20.47-5t6.1-12.07a12.88,12.88,0,0,0-4.75-10.43q-4.74-3.93-14.23-6.91l-13.82-4.34a171.55,171.55,0,0,1-20.6-7.73,61.58,61.58,0,0,1-15.73-10A41.62,41.62,0,0,1,343.3,115q-3.66-8-3.66-19.38,0-22.77,17.21-36T404.7,46.24a133.74,133.74,0,0,1,21.55,1.63,62.81,62.81,0,0,1,16.94,5,32.66,32.66,0,0,1,11.11,8.27,17.25,17.25,0,0,1,4.07,11.39,19.51,19.51,0,0,1-3.12,11,34.23,34.23,0,0,1-7.18,8q-6.24-4.33-16.54-7.32a80.94,80.94,0,0,0-22.5-3q-13,0-19.24,4.07t-6.24,10.3a9.48,9.48,0,0,0,4.07,8.27q4.06,2.84,12.74,5.82L415,114.55a162.31,162.31,0,0,1,22.36,9.35,67.88,67.88,0,0,1,16.13,11.39,41.67,41.67,0,0,1,9.76,14.64,51.11,51.11,0,0,1,3.25,18.84A47.42,47.42,0,0,1,462,189.5a44.3,44.3,0,0,1-13.28,16.13,65.52,65.52,0,0,1-21.69,10.57,105.25,105.25,0,0,1-29.68,3.8,122.48,122.48,0,0,1-23-2,72.78,72.78,0,0,1-18.3-5.83,35.36,35.36,0,0,1-12.2-9.35,19.57,19.57,0,0,1-4.47-12.61,18.05,18.05,0,0,1,4.2-12.2,36.55,36.55,0,0,1,9.35-7.86,74.25,74.25,0,0,0,18.3,10.57A63.41,63.41,0,0,0,396,185.3Z"></path><path class="cls-1" d="M624,150.06a81,81,0,0,1-4.88,28.87,59.92,59.92,0,0,1-14,21.82,62.62,62.62,0,0,1-21.82,13.83,79.12,79.12,0,0,1-28.46,4.88,82.22,82.22,0,0,1-28.6-4.75,60.55,60.55,0,0,1-22-13.69,59.79,59.79,0,0,1-14-21.82,81.8,81.8,0,0,1-4.88-29.14,78,78,0,0,1,5-28.59,61.52,61.52,0,0,1,14.09-21.83,62.29,62.29,0,0,1,22-13.82,79.41,79.41,0,0,1,28.33-4.88,78.32,78.32,0,0,1,28.19,4.88,61.65,61.65,0,0,1,21.82,14A63.21,63.21,0,0,1,619,121.6,77,77,0,0,1,624,150.06Zm-69.12-36.59q-12.75,0-19.79,9.49T528,150.06q0,18.16,6.91,27.52t19.93,9.35q13,0,19.92-9.49t6.91-27.38q0-17.34-7.05-27T554.87,113.47Z"></path><path class="cls-1" d="M688.77,94.49h46.08a65.11,65.11,0,0,1,2.85,6.78,25.9,25.9,0,0,1,1.49,9q0,8.67-3.93,12.47a14,14,0,0,1-10.16,3.79H690.67v88.64a53.6,53.6,0,0,1-7.59,1.49,79.48,79.48,0,0,1-10.84.68q-12.21,0-17.62-3.93T649.2,198V82.84q0-13.28,4.47-23A41.51,41.51,0,0,1,666,43.94a53.33,53.33,0,0,1,18.43-9.08,83.52,83.52,0,0,1,22.77-3q19.24,0,28.6,5t9.35,16.4a19.41,19.41,0,0,1-2,9.08,18.56,18.56,0,0,1-4.74,6.1,93.75,93.75,0,0,0-11-2.71,72.61,72.61,0,0,0-13.15-1.08q-12.46,0-19,4.47t-6.51,15Z"></path><path class="cls-1" d="M808,183.27c3.26,2.26,7.77,3.39,13.56,3.39a43.25,43.25,0,0,0,8.67-.95,42.7,42.7,0,0,0,7.86-2.31,24.62,24.62,0,0,1,4.07,6.24,20.34,20.34,0,0,1-5.83,23.72q-7.46,6.09-25.89,6.1-22.77,0-35.51-10.44t-12.74-34V53.29q3-.81,7.86-1.76a55.72,55.72,0,0,1,10.58-1q11.93,0,17.21,4.2t5.29,15.32V87.72h37.4a50.43,50.43,0,0,1,2.71,6.91,28.34,28.34,0,0,1,1.36,8.81q0,8.67-3.93,12.47a14,14,0,0,1-10.17,3.79H803.17v52.59Q803.17,179.88,808,183.27Z"></path><path class="cls-1" d="M1065.29,215.12a65.22,65.22,0,0,1-7.86,1.49,79.48,79.48,0,0,1-10.84.68q-12.19,0-17.49-3.93T1023.82,198V130.82q0-9-4.88-13.15t-13.29-4.2a27,27,0,0,0-10.16,1.9,34.53,34.53,0,0,0-8.54,4.87c.18.91.31,1.81.41,2.72s.13,1.81.13,2.71v89.45a64.84,64.84,0,0,1-7.86,1.49,79.48,79.48,0,0,1-10.84.68q-12.19,0-17.48-3.93T946,198V130.82q0-9-5.42-13.15a21.06,21.06,0,0,0-13.28-4.2A28.81,28.81,0,0,0,917,115.23a63.81,63.81,0,0,0-7.59,3.39v96.5a53,53,0,0,1-7.59,1.49,79.38,79.38,0,0,1-10.84.68q-12.19,0-17.62-3.93T868,198V114.28q0-7.05,3-11.38a32.92,32.92,0,0,1,8.41-8.13,74.4,74.4,0,0,1,22.09-10,98.66,98.66,0,0,1,27.51-3.8,73,73,0,0,1,21.55,3.12,57.66,57.66,0,0,1,18.57,9.62,83.49,83.49,0,0,1,18.43-9.08q10.31-3.66,24.4-3.66a77.59,77.59,0,0,1,20.19,2.58,45.72,45.72,0,0,1,17,8.4,42.38,42.38,0,0,1,11.79,15.18q4.47,9.34,4.47,22.63Z"></path><path class="cls-1" d="M1228.47,150.06a80.76,80.76,0,0,1-4.88,28.87,59.92,59.92,0,0,1-14,21.82,62.53,62.53,0,0,1-21.82,13.83,79.12,79.12,0,0,1-28.46,4.88,82.26,82.26,0,0,1-28.6-4.75,60.72,60.72,0,0,1-22-13.69,60,60,0,0,1-14-21.82,81.8,81.8,0,0,1-4.87-29.14,78,78,0,0,1,5-28.59,61.41,61.41,0,0,1,14.1-21.83,62.25,62.25,0,0,1,22-13.82,79.41,79.41,0,0,1,28.33-4.88,78.32,78.32,0,0,1,28.19,4.88,61.65,61.65,0,0,1,21.82,14,63.38,63.38,0,0,1,14.1,21.82A77.21,77.21,0,0,1,1228.47,150.06Zm-69.12-36.59q-12.75,0-19.79,9.49t-7,27.1q0,18.16,6.92,27.52t19.92,9.35q13,0,19.92-9.49t6.91-27.38q0-17.34-7-27T1159.35,113.47Z"></path><path class="cls-1" d="M1294.61,215.12a53.6,53.6,0,0,1-7.59,1.49,79.48,79.48,0,0,1-10.84.68q-12.21,0-17.62-3.93T1253.13,198V115.37a22.15,22.15,0,0,1,3.8-13,33.92,33.92,0,0,1,10.57-9.48,77.18,77.18,0,0,1,21.55-8.54,109.71,109.71,0,0,1,26.43-3.12q28.18,0,28.19,19a24.92,24.92,0,0,1-1.35,8.4,36.36,36.36,0,0,1-3,6.5,72.83,72.83,0,0,0-15.17-1.35,66.54,66.54,0,0,0-15.73,1.9,56.07,56.07,0,0,0-13.82,5.15Z"></path><text class="cls-2" transform="translate(643.22 293.35)">Estrategias Digitales.</text><path class="cls-3" d="M219.68,35.14c13,6.2,24.1,14.13,31.36,24.26,26.38,36.76,6.14,99-16.85,131.87-21.31,30.51-52.61,53.34-87,67.52-13,5.36-27,9.6-41,8.26C61.6,262.81,15.88,199.2,6.47,159c-11.38-48.66-3.28-117.7,49.86-138C73.83,14.25,93,13.1,111.7,13.76,140.57,14.79,186.52,19.38,219.68,35.14ZM82.13,91.48Q66.61,106.84,69.46,126.9t24.1,41.53q21.9,22.14,41.6,25.19T170.72,181q15.85-15.69,12.84-35.59T159,103.71q-20.91-21.13-41.11-24.37T82.13,91.48Z"></path><path class="cls-4" d="M260.63,131.34c4.91,13.57,7.19,27,5.24,39.29-7.11,44.69-65.25,74.67-104.74,81.89-36.61,6.7-74.92.91-109.35-13.22-13-5.35-25.92-12.14-34.94-23C-11.87,182,.38,104.6,22,69.4c26.13-42.6,80.45-86,132.53-63,17.15,7.55,31.57,20.19,44.41,33.84C218.71,61.23,248.15,96.81,260.63,131.34ZM123.24,74.63q-21.85,0-33.93,16.26T77.23,137.36q0,31.15,11.85,47.17t34.16,16q22.31,0,34.16-16.27t11.85-46.94q0-29.73-12.08-46.24T123.24,74.63Z"></path><path class="cls-5" d="M239.55,137.28q0,24.69-7.53,44.58a92.79,92.79,0,0,1-21.56,33.69,96.66,96.66,0,0,1-33.7,21.35q-19.68,7.53-43.95,7.53t-44.16-7.32A93.6,93.6,0,0,1,54.75,216a92.44,92.44,0,0,1-21.56-33.7q-7.54-19.87-7.54-45,0-24.27,7.75-44.16a95,95,0,0,1,21.76-33.7A96.24,96.24,0,0,1,89.07,38.07q19.88-7.53,43.74-7.53t43.53,7.53A95.12,95.12,0,0,1,210,59.63a97.72,97.72,0,0,1,21.77,33.7Q239.55,113,239.55,137.28ZM132.81,80.77q-19.68,0-30.56,14.65T91.37,137.28q0,28,10.67,42.48t30.77,14.45q20.1,0,30.77-14.66t10.67-42.27q0-26.79-10.88-41.65T132.81,80.77Z"></path><ellipse class="cls-6" cx="132.87" cy="136.77" rx="68.52" ry="66.96"></ellipse></g></g></svg>